<mxfile host="Electron" modified="2024-08-08T05:35:06.545Z" agent="Mozilla/5.0 (Windows NT 10.0; Win64; x64) AppleWebKit/537.36 (KHTML, like Gecko) draw.io/22.0.2 Chrome/114.0.5735.289 Electron/25.8.4 Safari/537.36" etag="9PFyVSU_H3l8QWjhmONW" version="22.0.2" type="device">
  <diagram name="第 1 页" id="VpGyK_skhyYmROg8ZDB-">
    <mxGraphModel dx="714" dy="451" grid="1" gridSize="10" guides="0" tooltips="1" connect="1" arrows="1" fold="1" page="1" pageScale="1" pageWidth="1169" pageHeight="827" math="0" shadow="0">
      <root>
        <mxCell id="0" />
        <mxCell id="1" parent="0" />
        <mxCell id="Y-x6ROe2QiB-aWYMagXP-6" style="rounded=0;orthogonalLoop=1;jettySize=auto;html=1;endArrow=classic;endFill=1;" edge="1" parent="1" source="Y-x6ROe2QiB-aWYMagXP-1" target="Y-x6ROe2QiB-aWYMagXP-2">
          <mxGeometry relative="1" as="geometry" />
        </mxCell>
        <mxCell id="Y-x6ROe2QiB-aWYMagXP-11" style="rounded=0;orthogonalLoop=1;jettySize=auto;html=1;" edge="1" parent="1" source="Y-x6ROe2QiB-aWYMagXP-1" target="Y-x6ROe2QiB-aWYMagXP-3">
          <mxGeometry relative="1" as="geometry" />
        </mxCell>
        <mxCell id="Y-x6ROe2QiB-aWYMagXP-1" value="0" style="ellipse;whiteSpace=wrap;html=1;aspect=fixed;fontSize=33;" vertex="1" parent="1">
          <mxGeometry x="150" y="100" width="80" height="80" as="geometry" />
        </mxCell>
        <mxCell id="Y-x6ROe2QiB-aWYMagXP-7" style="rounded=0;orthogonalLoop=1;jettySize=auto;html=1;endArrow=classic;endFill=1;" edge="1" parent="1" source="Y-x6ROe2QiB-aWYMagXP-2" target="Y-x6ROe2QiB-aWYMagXP-5">
          <mxGeometry relative="1" as="geometry" />
        </mxCell>
        <mxCell id="Y-x6ROe2QiB-aWYMagXP-9" style="rounded=0;orthogonalLoop=1;jettySize=auto;html=1;entryX=0.5;entryY=0;entryDx=0;entryDy=0;endArrow=classic;endFill=1;" edge="1" parent="1" source="Y-x6ROe2QiB-aWYMagXP-2" target="Y-x6ROe2QiB-aWYMagXP-4">
          <mxGeometry relative="1" as="geometry" />
        </mxCell>
        <mxCell id="Y-x6ROe2QiB-aWYMagXP-2" value="1" style="ellipse;whiteSpace=wrap;html=1;aspect=fixed;fontSize=33;" vertex="1" parent="1">
          <mxGeometry x="330" y="96" width="80" height="80" as="geometry" />
        </mxCell>
        <mxCell id="Y-x6ROe2QiB-aWYMagXP-8" style="rounded=0;orthogonalLoop=1;jettySize=auto;html=1;entryX=0;entryY=1;entryDx=0;entryDy=0;endArrow=classic;endFill=1;" edge="1" parent="1" source="Y-x6ROe2QiB-aWYMagXP-3" target="Y-x6ROe2QiB-aWYMagXP-2">
          <mxGeometry relative="1" as="geometry" />
        </mxCell>
        <mxCell id="Y-x6ROe2QiB-aWYMagXP-3" value="4" style="ellipse;whiteSpace=wrap;html=1;aspect=fixed;fontSize=33;" vertex="1" parent="1">
          <mxGeometry x="140" y="250" width="80" height="80" as="geometry" />
        </mxCell>
        <mxCell id="Y-x6ROe2QiB-aWYMagXP-10" style="rounded=0;orthogonalLoop=1;jettySize=auto;html=1;entryX=1;entryY=0.5;entryDx=0;entryDy=0;endArrow=classic;endFill=1;" edge="1" parent="1" source="Y-x6ROe2QiB-aWYMagXP-4" target="Y-x6ROe2QiB-aWYMagXP-5">
          <mxGeometry relative="1" as="geometry" />
        </mxCell>
        <mxCell id="Y-x6ROe2QiB-aWYMagXP-4" value="2" style="ellipse;whiteSpace=wrap;html=1;aspect=fixed;fontSize=33;" vertex="1" parent="1">
          <mxGeometry x="420" y="250" width="80" height="80" as="geometry" />
        </mxCell>
        <mxCell id="Y-x6ROe2QiB-aWYMagXP-5" value="3" style="ellipse;whiteSpace=wrap;html=1;aspect=fixed;fontSize=33;" vertex="1" parent="1">
          <mxGeometry x="270" y="360" width="80" height="80" as="geometry" />
        </mxCell>
        <mxCell id="Y-x6ROe2QiB-aWYMagXP-13" value="0 1&lt;br&gt;0 4&lt;br&gt;1 2&lt;br&gt;1 3&lt;br&gt;2 3&lt;br&gt;4 1" style="text;html=1;align=center;verticalAlign=middle;resizable=0;points=[];autosize=1;strokeColor=none;fillColor=none;" vertex="1" parent="1">
          <mxGeometry x="490" y="63" width="40" height="100" as="geometry" />
        </mxCell>
      </root>
    </mxGraphModel>
  </diagram>
</mxfile>
